<svg width="76" height="66" viewBox="0 0 76 66" xmlns="http://www.w3.org/2000/svg">
    <path
        d="M55.6876 16.471C55.6876 17.222 55.4649 17.9561 55.0477 18.5805C54.6305 19.2049 54.0375 19.6915 53.3437 19.9789C52.65 20.2663 51.8865 20.3415 51.15 20.195C50.4135 20.0485 49.737 19.6868 49.2059 19.1558C48.6749 18.6248 48.3133 17.9483 48.1668 17.2118C48.0203 16.4753 48.0955 15.7118 48.3829 15.018C48.6703 14.3243 49.1569 13.7313 49.7813 13.3141C50.4057 12.8969 51.1398 12.6742 51.8907 12.6742C52.8977 12.6742 53.8635 13.0742 54.5755 13.7863C55.2876 14.4983 55.6876 15.4641 55.6876 16.471ZM39.5889 36.0408C39.334 35.8274 39.0395 35.6663 38.7224 35.5667C38.4052 35.4672 38.0715 35.431 37.7404 35.4604C37.4093 35.4898 37.0872 35.5841 36.7925 35.738C36.4978 35.8918 36.2363 36.1023 36.023 36.3572L23.3667 51.5447C22.9371 52.0608 22.73 52.7264 22.7911 53.3951C22.8523 54.0639 23.1765 54.6809 23.6926 55.1106C24.2087 55.5402 24.8743 55.7473 25.5431 55.6861C26.2118 55.625 26.8289 55.3008 27.2585 54.7847L39.9148 39.5972C40.3416 39.0817 40.547 38.4182 40.4859 37.7517C40.4249 37.0852 40.1023 36.4701 39.5889 36.0408ZM75.9376 20.2679C75.9379 20.6848 75.8352 21.0952 75.6387 21.4628C75.4422 21.8304 75.158 22.1438 74.8112 22.3752L68.3439 26.6846V32.9242C68.3347 41.6486 64.8648 50.0131 58.6957 56.1822C52.5266 62.3513 44.1621 65.8212 35.4376 65.8304H2.53137C2.05435 65.8307 1.58695 65.6962 1.18305 65.4424C0.779148 65.1886 0.455182 64.8259 0.248491 64.396C0.0418007 63.966 -0.0392013 63.4865 0.0148213 63.0125C0.0688439 62.5386 0.255692 62.0895 0.553831 61.7171L30.3751 24.4413V19.0023C30.3708 14.4674 31.99 10.0809 34.9396 6.63636C37.8893 3.19185 41.9744 0.916977 46.4559 0.223398C50.9374 -0.470181 55.5192 0.463359 59.372 2.85508C63.2249 5.24681 66.0943 8.93871 67.4611 13.2627L74.8112 18.1607C75.158 18.392 75.4422 18.7054 75.6387 19.073C75.8352 19.4406 75.9379 19.8511 75.9376 20.2679ZM68.8438 20.2679L63.8825 16.9583C63.365 16.6141 62.9923 16.0915 62.8352 15.4902C61.9843 12.2103 59.9664 9.35332 57.1597 7.45481C54.353 5.55629 50.9503 4.74657 47.5893 5.17741C44.2283 5.60826 41.1399 7.25009 38.9028 9.79516C36.6658 12.3402 35.4337 15.6138 35.4376 19.0023V25.3304C35.4381 25.9053 35.2428 26.4633 34.8839 26.9125L7.79637 60.7679H35.4376C42.8197 60.7595 49.897 57.8233 55.1169 52.6034C60.3368 47.3835 63.273 40.3062 63.2814 32.9242V25.3304C63.2811 24.9136 63.3838 24.5031 63.5803 24.1355C63.7768 23.7679 64.061 23.4545 64.4078 23.2232L68.8438 20.2679Z" />
</svg>