<svg width="18" height="22" viewBox="0 0 18 22" xmlns="http://www.w3.org/2000/svg">
    <path
        d="M9.00012 9.5V6.5M9.00012 6.5C10.1047 6.5 11.0001 5.60457 11.0001 4.5C11.0001 3.39543 9.50012 1 9.00012 1C8.50012 1 7.00012 3.39543 7.00012 4.5C7.00012 5.60457 7.89552 6.5 9.00012 6.5ZM17.0001 14.5L16.5679 15.1441C15.835 16.2364 14.2148 16.195 13.5385 15.0667L13.4993 15.0013C12.8204 13.8686 11.1791 13.8683 10.4997 15.0007C9.82052 16.1327 8.17952 16.1324 7.50032 15.0003C6.82089 13.8679 5.17955 13.8676 4.50012 15L4.46017 15.0666C3.78188 16.1971 2.15728 16.2357 1.42597 15.1388L1.00012 14.5M17.0001 20.5V13.5C17.0001 11.2909 15.2092 9.5 13.0001 9.5H5.00012C2.79098 9.5 1.00012 11.2909 1.00012 13.5V20.5H17.0001Z"
        stroke-width="2" stroke-linecap="round" stroke-linejoin="round" />
</svg>