<svg width="73" height="73" viewBox="0 0 73 73" fill="none" xmlns="http://www.w3.org/2000/svg">
<path d="M13.6927 72.625H55.4157C59.8666 72.625 63.4719 69.0145 63.4719 64.5636V30.6789C70.7707 30.1549 75.0712 21.9846 71.1235 15.6092L68.8669 11.9676C67.9815 10.5369 66.7452 9.35606 65.2754 8.53717C63.8055 7.71829 62.1509 7.28845 60.4683 7.28844H54.3678V4.78288C54.3685 4.15502 54.2455 3.53319 54.0057 2.95294C53.7659 2.37269 53.414 1.84538 52.9703 1.40119C52.5266 0.956987 51.9997 0.604601 51.4197 0.364175C50.8397 0.12375 50.218 -3.7009e-07 49.5902 0C46.5826 0 43.6983 1.19473 41.5717 3.32137C39.445 5.44801 38.2503 8.33235 38.2503 11.3399V26.5704C32.5648 27.2084 28.2384 29.9526 25.0637 33.7706C21.4947 38.0555 19.4093 43.6217 18.1643 48.9389C17.0944 53.7356 16.4864 58.6238 16.3487 63.5365C16.2968 65.0513 16.2968 66.3792 16.3072 67.4375H13.6979C12.0377 67.4377 10.4137 66.9528 9.02545 66.0423C7.63723 65.1318 6.54532 63.8356 5.88398 62.3128C5.22264 60.7901 5.0207 59.1073 5.30298 57.4713C5.58526 55.8353 6.33946 54.3175 7.47285 53.1044L11.6073 48.6691C14.5192 45.5462 16.1055 41.4151 16.0319 37.1459C15.9584 32.8767 14.2308 28.8026 11.213 25.7819L7.15641 21.7201C6.91715 21.4723 6.63094 21.2747 6.31449 21.1388C5.99804 21.0029 5.65769 20.9313 5.3133 20.9283C4.9689 20.9253 4.62736 20.991 4.30859 21.1214C3.98983 21.2518 3.70023 21.4444 3.4567 21.6879C3.21317 21.9314 3.02057 22.221 2.89016 22.5398C2.75974 22.8586 2.69411 23.2001 2.69711 23.5445C2.7001 23.8889 2.77165 24.2293 2.90759 24.5457C3.04352 24.8622 3.24112 25.1484 3.48885 25.3876L7.55066 29.4494C9.61927 31.5187 10.8036 34.3104 10.8539 37.2358C10.9042 40.1613 9.81663 42.9921 7.82041 45.1312L3.68079 49.5666C1.86098 51.5191 0.650674 53.9604 0.198332 56.5909C-0.254009 59.2214 0.0712916 61.9267 1.13433 64.375C2.19736 66.8233 3.9519 68.9081 6.1827 70.3735C8.41351 71.839 11.0236 72.6215 13.6927 72.625ZM49.1803 5.20306V9.88219C49.1803 10.5701 49.4536 11.2298 49.94 11.7162C50.4265 12.2027 51.0862 12.4759 51.7741 12.4759H60.4683C62.092 12.4759 63.6016 13.3163 64.4627 14.7014L66.7193 18.343C67.1618 19.0544 67.4059 19.8714 67.4262 20.709C67.4465 21.5466 67.2422 22.3743 66.8347 23.1063C66.4271 23.8384 65.831 24.448 65.1084 24.872C64.3857 25.2959 63.5628 25.5187 62.7249 25.5173H60.8834C60.1954 25.5173 59.5357 25.7906 59.0493 26.277C58.5629 26.7634 58.2896 27.4232 58.2896 28.1111V64.5636C58.2896 65.3258 57.9868 66.0568 57.4479 66.5958C56.9089 67.1347 56.1779 67.4375 55.4157 67.4375H52.547V64.5636C52.5477 62.7872 52.1984 61.0281 51.5191 59.3867C50.8398 57.7453 49.8437 56.2538 48.5878 54.9975C47.332 53.7411 45.8409 52.7445 44.1998 52.0646C42.5586 51.3846 40.7996 51.0346 39.0232 51.0346H34.4686C33.7807 51.0346 33.121 51.3079 32.6345 51.7943C32.1481 52.2807 31.8748 52.9405 31.8748 53.6284C31.8748 54.3163 32.1481 54.976 32.6345 55.4624C33.121 55.9489 33.7807 56.2221 34.4686 56.2221H39.0232C43.6245 56.2221 47.3595 59.9571 47.3595 64.5636V67.4375H21.4947C21.4791 66.4363 21.4843 65.1706 21.531 63.7077C21.6555 59.9623 22.0757 55.0186 23.2169 50.1164C24.3685 45.1779 26.2101 40.4936 29.0477 37.0906C31.8022 33.781 35.532 31.6178 40.844 31.6178C41.5319 31.6178 42.1917 31.3445 42.6781 30.8581C43.1645 30.3717 43.4378 29.712 43.4378 29.0241V11.3399C43.4378 8.08213 45.9745 5.41056 49.1803 5.20306Z" fill="white"/>
</svg>
