<svg width="61" height="66" viewBox="0 0 61 66" xmlns="http://www.w3.org/2000/svg">
    <path
        d="M39.8478 4.6875C39.2262 4.6875 38.6301 4.93443 38.1905 5.37397C37.751 5.81351 37.5041 6.40965 37.5041 7.03125V11.7188C37.5041 12.3404 37.751 12.9365 38.1905 13.376C38.6301 13.8156 39.2262 14.0625 39.8478 14.0625C40.4694 14.0625 41.0656 13.8156 41.5051 13.376C41.9446 12.9365 42.1916 12.3404 42.1916 11.7188C42.1916 11.0971 42.4385 10.501 42.878 10.0615C43.3176 9.62193 43.9137 9.375 44.5353 9.375C45.1569 9.375 45.7531 9.62193 46.1926 10.0615C46.6321 10.501 46.8791 11.0971 46.8791 11.7188C46.8796 12.8779 46.5935 14.0192 46.0464 15.041C45.4992 16.0629 44.7079 16.9336 43.7429 17.5757C42.7778 18.2178 41.669 18.6114 40.5151 18.7214C39.3612 18.8314 38.198 18.6544 37.1291 18.2062C36.7151 21.9167 35.753 25.5452 34.2744 28.9734C32.3478 33.375 29.8166 36.5156 27.5338 39.0609C25.9025 40.8844 24.8478 43.5 24.2244 46.6125C23.6009 49.7063 23.4416 53.0859 23.4416 56.25C23.4416 57.6703 22.9259 59.3859 21.9884 60.9375H41.7931C41.3053 59.5679 40.4062 58.3825 39.219 57.5435C38.0317 56.7044 36.6142 56.2527 35.1603 56.25H32.8166C32.195 56.25 31.5988 56.0031 31.1593 55.5635C30.7198 55.124 30.4728 54.5279 30.4728 53.9062C30.4728 53.2846 30.7198 52.6885 31.1593 52.249C31.5988 51.8094 32.195 51.5625 32.8166 51.5625H35.1603C35.9619 51.5625 36.7447 51.6422 37.5041 51.7969V44.5312C37.5041 43.9096 37.751 43.3135 38.1905 42.874C38.6301 42.4344 39.2262 42.1875 39.8478 42.1875C40.4694 42.1875 41.0656 42.4344 41.5051 42.874C41.9446 43.3135 42.1916 43.9096 42.1916 44.5312V53.9062C44.4416 55.5938 46.0634 58.0781 46.6447 60.9375H55.8556C55.3708 59.566 54.4724 58.3787 53.2845 57.5392C52.0966 56.6997 50.6775 56.2492 49.2228 56.25C48.6012 56.25 48.0051 56.0031 47.5655 55.5635C47.126 55.124 46.8791 54.5279 46.8791 53.9062V21.0938C46.8791 20.4721 47.126 19.876 47.5655 19.4365C48.0051 18.9969 48.6012 18.75 49.2228 18.75H53.9103C54.5319 18.75 55.1281 18.5031 55.5676 18.0635C56.0071 17.624 56.2541 17.0279 56.2541 16.4062V12.0281C56.2542 11.6231 56.1493 11.2249 55.9496 10.8725C55.75 10.5201 55.4625 10.2254 55.115 10.0172L46.7853 5.02031C46.4213 4.80238 46.0049 4.68735 45.5806 4.6875H39.8478ZM14.0666 60.9375C15.5384 60.9375 16.6728 60.225 17.5119 59.1797C18.4025 58.0594 18.7541 56.8031 18.7541 56.25C18.7541 52.9688 18.9181 49.2328 19.6259 45.6891C20.3338 42.1734 21.6275 38.6344 24.0369 35.9391C26.1791 33.5484 28.34 30.8297 29.99 27.0844C31.6259 23.3484 32.8166 18.4594 32.8166 11.7188V7.03125C32.8166 5.16645 33.5574 3.37802 34.876 2.05941C36.1946 0.74079 37.983 0 39.8478 0H45.5806C46.8555 0.000121101 48.1064 0.346863 49.1994 1.00312L57.5291 6C58.5699 6.62475 59.4312 7.5083 60.0292 8.56467C60.6272 9.62104 60.9415 10.8142 60.9416 12.0281V16.4062C60.9416 18.2711 60.2008 20.0595 58.8822 21.3781C57.5636 22.6967 55.7751 23.4375 53.9103 23.4375H51.5666V51.7969C54.2135 52.3372 56.5925 53.7754 58.3009 55.8682C60.0093 57.961 60.9421 60.5797 60.9416 63.2812C60.9416 63.9029 60.6946 64.499 60.2551 64.9385C59.8156 65.3781 59.2194 65.625 58.5978 65.625H12.8947C10.1285 65.6259 7.43544 64.7369 5.21336 63.0895C2.99129 61.442 1.35809 59.1235 0.555096 56.4764C-0.247902 53.8294 -0.178106 50.9942 0.75417 48.3899C1.68645 45.7855 3.43175 43.5502 5.7322 42.0141C5.98781 41.8365 6.27622 41.7117 6.5806 41.6468C6.88498 41.5819 7.19923 41.5783 7.50502 41.6362C7.81082 41.694 8.10202 41.8122 8.36165 41.9838C8.62127 42.1554 8.84412 42.377 9.01718 42.6357C9.19025 42.8944 9.31006 43.1849 9.36964 43.4904C9.42921 43.7958 9.42735 44.1101 9.36417 44.4148C9.30099 44.7196 9.17775 45.0087 9.00164 45.2653C8.82553 45.5219 8.60008 45.7408 8.33845 45.9094C6.87331 46.8863 5.76144 48.3088 5.16726 49.9666C4.57309 51.6243 4.52814 53.4292 5.03908 55.1144C5.55001 56.7997 6.58969 58.2758 8.0044 59.3244C9.4191 60.3731 11.1337 60.9387 12.8947 60.9375H14.0666Z" />
</svg>