<svg width="39" height="64" viewBox="0 0 39 64" xmlns="http://www.w3.org/2000/svg">
    <path
        d="M24.45 58.1655C24.45 59.5745 23.8902 60.9257 22.894 61.922C21.8977 62.9183 20.5464 63.478 19.1375 63.478C17.7285 63.478 16.3772 62.9183 15.3809 61.922C14.3847 60.9257 13.825 59.5745 13.825 58.1655C13.825 56.7566 14.3847 55.4053 15.3809 54.409C16.3772 53.4127 17.7285 52.853 19.1375 52.853C20.5464 52.853 21.8977 53.4127 22.894 54.409C23.8902 55.4053 24.45 56.7566 24.45 58.1655Z" />
    <path fill-rule="evenodd" clip-rule="evenodd"
        d="M18.9676 6.37925C15.5378 6.37925 12.4906 7.39925 10.2423 8.98875C8.07481 10.5187 6.73606 12.4992 6.32381 14.5477C6.24814 14.9649 6.09003 15.3627 5.85873 15.718C5.62742 16.0732 5.32758 16.3788 4.97674 16.6167C4.6259 16.8547 4.23112 17.0203 3.8155 17.1038C3.39988 17.1873 2.97178 17.1871 2.55625 17.1032C2.14072 17.0192 1.74611 16.8532 1.39552 16.6149C1.04493 16.3766 0.745401 16.0707 0.514467 15.7152C0.283534 15.3597 0.125833 14.9617 0.0505985 14.5445C-0.0246362 14.1273 -0.0158949 13.6993 0.0763115 13.2855C0.866811 9.367 3.31481 6.0775 6.56181 3.7825C9.94481 1.394 14.2968 0 18.9676 0C28.8488 0 38.1266 6.52375 38.1266 15.9672C38.1266 21.4582 34.8626 26.0652 30.3321 28.8405C29.6107 29.2823 28.7433 29.4195 27.9208 29.2219C27.0982 29.0242 26.3879 28.5079 25.9461 27.7865C25.5042 27.0651 25.367 26.1977 25.5647 25.3752C25.7624 24.5527 26.2787 23.8423 27.0001 23.4005C30.0983 21.505 31.7516 18.7552 31.7516 15.9672C31.7516 11.2965 26.7281 6.37925 18.9676 6.37925ZM18.9676 28.7555C19.8129 28.7555 20.6237 29.0913 21.2215 29.6891C21.8192 30.2869 22.1551 31.0976 22.1551 31.943V38.3265C22.1551 39.1719 21.8192 39.9826 21.2215 40.5804C20.6237 41.1782 19.8129 41.514 18.9676 41.514C18.1222 41.514 17.3114 41.1782 16.7137 40.5804C16.1159 39.9826 15.7801 39.1719 15.7801 38.3265V31.943C15.7801 31.0976 16.1159 30.2869 16.7137 29.6891C17.3114 29.0913 18.1222 28.7555 18.9676 28.7555Z" />
    <path fill-rule="evenodd" clip-rule="evenodd"
        d="M31.4115 24.4885C31.6267 24.8476 31.7691 25.2456 31.8305 25.6598C31.8919 26.0739 31.871 26.4961 31.7692 26.9023C31.6674 27.3084 31.4866 27.6904 31.237 28.0267C30.9875 28.3629 30.6742 28.6466 30.315 28.8617L20.6038 34.6757C20.2444 34.8996 19.844 35.0497 19.426 35.1171C19.008 35.1846 18.5807 35.1681 18.1691 35.0686C17.7576 34.9691 17.37 34.7886 17.0289 34.5376C16.6879 34.2866 16.4003 33.9702 16.1829 33.6069C15.9655 33.2435 15.8227 32.8405 15.7628 32.4213C15.7029 32.0022 15.7271 31.5753 15.834 31.1656C15.9409 30.7558 16.1284 30.3715 16.3854 30.0351C16.6425 29.6986 16.9641 29.4168 17.3313 29.206L27.0425 23.392C27.7674 22.9586 28.6347 22.8307 29.4539 23.0363C30.273 23.2419 30.9771 23.7642 31.4115 24.4885Z" />
</svg>