<svg width="72" height="51" viewBox="0 0 72 51" xmlns="http://www.w3.org/2000/svg">
    <path
        d="M44.9861 17.3L39.2352 11.6324C38.6012 11.0001 38.0982 10.249 37.755 9.42205C37.4117 8.59513 37.2351 7.70866 37.2351 6.8134C37.2351 5.91814 37.4117 5.03167 37.755 4.20475C38.0982 3.37783 38.6012 2.62671 39.2352 1.99441C40.5143 0.717326 42.2483 0 44.0561 0C45.864 0 47.5979 0.717326 48.877 1.99441L67.8665 20.8625C69.1769 22.1705 70.2164 23.7238 70.9257 25.4336C71.6349 27.1435 72 28.9764 72 30.8274C72 32.6784 71.6349 34.5113 70.9257 36.2212C70.2164 37.931 69.1769 39.4843 67.8665 40.7922C66.4227 42.2357 64.6822 43.3481 62.7656 44.0523C60.849 44.7565 58.8021 45.0357 56.7668 44.8706C56.0767 46.6741 54.8551 48.2258 53.2636 49.3203C51.6722 50.4148 49.7858 51.0005 47.854 51H21.5717C19.038 51.0016 16.6072 49.9985 14.8126 48.2107C13.0179 46.423 12.006 43.9966 11.9989 41.464V35.8743C10.1073 36.1471 8.17712 35.8986 6.4164 35.1556C4.65568 34.4127 3.13122 33.2034 2.00735 31.6582C0.883473 30.113 0.20282 28.2905 0.0387614 26.3872C-0.125297 24.4838 0.233462 22.5718 1.07636 20.8572C1.91927 19.1426 3.21434 17.6905 4.82198 16.6575C6.42961 15.6244 8.28884 15.0496 10.1992 14.9949C12.1096 14.9402 13.9987 15.4078 15.6628 16.3472C17.327 17.2866 18.703 18.6622 19.6427 20.3258C22.1454 18.7968 25.0224 17.9894 27.9555 17.9927H41.4702C42.3882 17.9927 43.2941 18.0737 44.1731 18.2236C44.4272 17.9022 44.7006 17.5939 44.9861 17.3ZM45.7001 5.17608C45.2647 4.74135 44.6745 4.49717 44.0591 4.49717C43.4437 4.49717 42.8535 4.74135 42.4182 5.17608C42.2028 5.39016 42.0318 5.64459 41.9149 5.92481C41.798 6.20504 41.7376 6.50555 41.737 6.80916C41.7364 7.11276 41.7958 7.41349 41.9116 7.69414C42.0275 7.9748 42.1976 8.22985 42.4122 8.44472L42.4182 8.44772L52.0839 17.9867L49.072 19.717C48.334 20.1938 47.542 21.1204 47.128 21.8551L46.2611 23.3935L44.5601 22.9167C43.5541 22.6367 42.5145 22.4955 41.4702 22.4969H27.9555C24.9241 22.4945 22.0154 23.6941 19.8676 25.8326C17.7199 27.9711 16.5083 30.8739 16.4988 33.9041V41.461C16.4988 44.2288 18.7727 46.4989 21.5687 46.4989H35.9983V45.5183C35.9983 42.7384 33.7394 40.4804 30.9494 40.4804H26.2365C25.6398 40.4804 25.0675 40.2434 24.6456 39.8216C24.2236 39.3999 23.9866 38.8278 23.9866 38.2313C23.9866 37.6348 24.2236 37.0628 24.6456 36.641C25.0675 36.2192 25.6398 35.9823 26.2365 35.9823H30.9494C32.2026 35.9819 33.4436 36.2282 34.6015 36.7072C35.7595 37.1862 36.8117 37.8885 37.6981 38.774C38.5845 39.6595 39.2877 40.7109 39.7677 41.8681C40.2476 43.0253 40.4948 44.2656 40.4952 45.5183V46.4989H47.854C49.0854 46.4991 50.2742 46.0487 51.1961 45.2327C52.118 44.4167 52.7091 43.2916 52.8579 42.0697L53.1549 39.5508L55.6208 40.1475C57.2228 40.5364 58.8979 40.5067 60.4851 40.0613C62.0722 39.616 63.5181 38.77 64.6836 37.6046C65.5751 36.7147 66.2824 35.6579 66.7651 34.4946C67.2477 33.3313 67.4963 32.0844 67.4966 30.825C67.4968 29.5657 67.2488 28.3186 66.7667 27.1551C66.2845 25.9916 65.5777 24.9345 64.6866 24.0442V24.0412L45.6971 5.17308L45.7001 5.17608ZM16.0788 23.2825C15.6511 22.1993 14.9171 21.2639 13.9665 20.5907C13.0159 19.9174 11.8897 19.5353 10.7255 19.4912C9.56131 19.447 8.40942 19.7426 7.41046 20.3419C6.41151 20.9411 5.60871 21.8182 5.10006 22.8659C4.59141 23.9136 4.39893 25.0867 4.54611 26.242C4.69328 27.3972 5.17375 28.4847 5.92885 29.3715C6.68396 30.2584 7.68103 30.9063 8.79836 31.2362C9.91568 31.5661 11.1049 31.5637 12.2209 31.2292C12.727 28.2682 14.065 25.5122 16.0788 23.2825Z" />
</svg>