<svg width="74" height="73" viewBox="0 0 74 73" fill="none" xmlns="http://www.w3.org/2000/svg">
<path d="M10.7511 0C10.7511 5.34021 13.4482 8.52799 16.5187 11.9287C13.6334 13.6707 10.4148 13.3313 7.42295 13.4393C10.6046 16.2938 15.4078 17.2967 18.8332 16.0469L23.4158 23.8697C25.0514 24.2709 26.7486 24.3326 28.415 24.1783C29.0631 21.1695 29.8809 18.1453 30.8684 15.2137C28.9551 16.4172 27.7978 17.6361 26.3783 19.2408L21.5488 14.1027C24.6656 11.5059 25.8537 6.70111 24.3416 3.17852C23.3541 6.38943 21.626 8.54496 19.435 10.0756C17.7531 5.43434 13.8648 2.13855 10.7511 0ZM42.2709 0C39.9719 2.43789 37.8734 5.7383 36.099 9.5448C33.1828 15.8 31.1152 23.3451 30.1432 30.2885V30.3039C29.6186 34.0996 31.4393 38.8211 32.8896 43.5271C33.6303 45.8725 34.2629 48.2332 34.3246 50.5631C34.4018 52.893 33.8617 55.2537 32.257 57.2596C29.8346 60.2992 25.8229 62.1354 21.6877 62.7217C17.5371 63.3234 13.1859 62.6908 10.1324 60.2066C5.80592 56.6732 3.7476 52.1678 3.57787 46.7674C3.46523 43.2031 4.11791 39.2377 5.31525 34.7322C2.81256 38.7902 1.05512 43.2957 0.353066 47.7395C-0.722383 54.5439 0.596855 61.1016 5.16867 65.9156C8.79928 69.7422 14.8678 71.9332 21.3328 72.3189C27.7979 72.7201 34.6023 71.316 39.5398 68.3227C47.625 63.2926 48.6896 58.3088 48.3039 53.001C47.9027 47.6932 45.542 42.1385 46.8689 36.8152C48.4891 30.3039 55.7873 22.7588 63.1936 15.1674C66.7424 11.5244 70.3375 7.88457 73.3617 4.57182V0H42.2709ZM71.109 24.7338C67.051 25.9836 64.2273 30.4736 64.2428 33.6676L57.2068 33.035L57.5 31.5229C57.8703 29.5633 57.7623 27.542 57.4074 25.4744C54.9541 28.298 52.8557 30.9982 51.4207 33.3744C52.4236 35.2105 53.7506 36.9078 55.4016 38.2193L64.3971 37.0004C65.6777 41.0121 70.1369 43.6352 73.3617 44.3449V44.2061C71.3867 41.3361 69.5506 39.5154 69.0568 36.2752C70.4918 36.2289 71.6645 36.7227 73.3617 36.0746V31.8623C71.6182 31.924 70.3684 32.3406 68.7174 32.8344C68.2391 29.7947 69.7357 26.9248 71.109 24.7338Z" fill="#2CBFAE"/>
</svg>
