<svg width="20" height="20" viewBox="0 0 20 20" fill="none" xmlns="http://www.w3.org/2000/svg">
<path d="M18.9605 4.17061C18.6021 3.81224 15.5752 0.785223 15.22 0.430048C14.907 0.117067 14.3996 0.117067 14.0866 0.430048C13.7736 0.743029 13.7736 1.25046 14.0866 1.56344L14.5411 2.01796L12.3554 4.20363C11.4303 3.2785 11.2417 3.08994 10.4602 2.30838C10.1472 1.9954 9.63976 1.9954 9.32678 2.30838C9.0138 2.62136 9.0138 3.1288 9.32678 3.44178L10.2008 4.31578L2.83292 11.6836C2.51994 11.9966 2.51994 12.5041 2.83292 12.817L4.13654 14.1207L0.430048 17.8271C0.117067 18.1401 0.117067 18.6476 0.430048 18.9605C0.742992 19.2735 1.25046 19.2736 1.56345 18.9605L5.26994 15.254L6.57355 16.5577C6.8865 16.8706 7.39397 16.8706 7.70695 16.5577L15.0749 9.18973L15.9489 10.0637C16.2618 10.3767 16.7693 10.3768 17.0823 10.0637C17.3953 9.75075 17.3953 9.24332 17.0823 8.93034C16.301 8.14904 16.1118 7.95985 15.187 7.03508L17.3727 4.84945L17.8272 5.30397C18.1402 5.61695 18.6476 5.61702 18.9606 5.30397C19.2735 4.99102 19.2735 4.48359 18.9605 4.17061ZM7.14022 14.8576L4.53305 12.2504L5.59127 11.1922L6.2713 11.8722C6.58424 12.1851 7.09171 12.1852 7.4047 11.8722C7.71768 11.5592 7.71768 11.0518 7.4047 10.7388L6.72466 10.0588L7.36692 9.41647L8.04695 10.0965C8.35989 10.4095 8.86736 10.4096 9.18035 10.0965C9.49333 9.78352 9.49333 9.27609 9.18035 8.96311L8.50031 8.28308L9.14257 7.64082L9.8226 8.32085C10.1355 8.63383 10.643 8.63391 10.956 8.32085C11.269 8.00787 11.269 7.50044 10.956 7.18746L10.276 6.50742L11.3343 5.44914C11.5962 5.71109 13.6796 7.79453 13.9415 8.05634L7.14022 14.8576ZM14.0536 5.90172L13.4889 5.33699L15.6745 3.15136L16.2392 3.71609L14.0536 5.90172Z" fill="#2CBFAE" stroke="#2CBFAE" stroke-width="0.390626"/>
</svg>
