<svg width="70" height="47" viewBox="0 0 70 47" fill="none" xmlns="http://www.w3.org/2000/svg">
<path d="M30.7395 0C20.0675 0 13.3055 7.567 10.7065 16.146L10.3615 17.296H2.875C2.1125 17.296 1.38124 17.5989 0.842069 18.1381C0.302902 18.6772 0 19.4085 0 20.171C0 24.1097 1.0925 27.807 3.0015 30.5958C3.67425 31.5732 4.4735 32.476 5.38775 33.2293L3.6685 37.398C3.27563 38.3536 3.12417 39.3912 3.22751 40.4192C3.33084 41.4472 3.68579 42.4339 4.26099 43.2921C4.83618 44.1504 5.61392 44.8537 6.52547 45.34C7.43703 45.8264 8.45433 46.0807 9.4875 46.0805H15.6573C18.0953 46.0805 20.3148 44.6775 21.3498 42.4695L23.0978 38.7607C28.3392 39.4376 33.6459 39.4376 38.8873 38.7607L40.6295 42.4695C41.6645 44.6775 43.8898 46.0863 46.322 46.0863H52.4343C53.4694 46.0886 54.4891 45.8353 55.4027 45.3487C56.3164 44.8622 57.0957 44.1575 57.6715 43.2972C58.2473 42.437 58.6016 41.4479 58.7031 40.4177C58.8046 39.3876 58.6501 38.3483 58.2533 37.3923L57.0918 34.5748H62.6405C66.1883 34.5748 69.0345 31.5618 69.0345 28.0658V24.5007C69.0345 19.0957 64.814 14.4383 59.317 14.4383H50.899C47.8285 6.4745 40.5893 0.00575095 30.7395 0.00575095V0ZM55.1425 28.8248L52.6528 20.194H59.317C61.3698 20.194 63.2845 21.9995 63.2845 24.5065V28.0715C63.2815 28.281 63.1969 28.4811 63.0488 28.6292C62.8878 28.7903 62.7325 28.8305 62.6405 28.8305L55.1425 28.8248ZM51.3763 35.8053L52.9345 39.583C52.9686 39.6652 52.9818 39.7545 52.9731 39.8431C52.9644 39.9316 52.9339 40.0167 52.8844 40.0906C52.8349 40.1646 52.7679 40.2252 52.6894 40.267C52.6109 40.3088 52.5232 40.3307 52.4343 40.3305H46.3278C46.2243 40.3315 46.1226 40.3028 46.035 40.2478C45.9473 40.1927 45.8773 40.1137 45.8333 40.02L44.7465 37.7142C46.9775 37.2025 49.1913 36.5643 51.3763 35.8053ZM17.2385 37.7142L16.146 40.02C16.1032 40.1139 16.0344 40.1935 15.9478 40.2495C15.8612 40.3056 15.7604 40.3357 15.6573 40.3363H9.4875C9.39852 40.3364 9.31087 40.3146 9.23235 40.2727C9.15382 40.2309 9.08684 40.1703 9.03735 40.0964C8.98786 40.0224 8.95739 39.9374 8.94865 39.8488C8.93991 39.7603 8.95317 39.6709 8.98725 39.5888L10.5513 35.7938C12.7535 36.5643 14.9845 37.2025 17.2385 37.72V37.7142ZM8.61925 23.046L7.45775 26.8985C6.75998 25.7069 6.27364 24.4035 6.02025 23.046H8.61925ZM16.2093 17.8135C18.3195 10.8503 23.3565 5.75 30.7395 5.75C38.2375 5.75 43.907 10.9825 45.977 17.7963L49.5995 30.337C37.567 34.5712 24.4507 34.5773 12.4143 30.3543L16.2093 17.8135Z" fill="#2CBFAE"/>
</svg>
